<svg data-v-c9f5321e="" width="32" height="32" viewBox="0 0 32 32" fill="none" xmlns="http://www.w3.org/2000/svg" alt="logo descomplica" title="logo descomplica" data-v-5ea2a3ce=""><path d="M25.9338 1.9232L3.95375 5.87592C2.14593 6.20106 0.666504 7.97637 0.666504 10.1148V23.4697C0.666504 25.6612 2.14376 27.3975 3.94833 27.74L25.9403 31.9192C28.6184 32.4275 30.8099 30.4365 30.8099 27.5828V6.45793C30.811 3.30508 28.6162 1.44089 25.9338 1.9232Z" fill="#00E88F"></path><path d="M20.4616 23.2329C19.1675 24.7015 17.4193 25.6802 15.321 25.6802C10.5652 25.6802 7.10449 21.8337 7.10449 16.4839C7.10449 11.1688 10.5662 7.28765 15.321 7.28765C17.1743 7.28765 18.748 7.98672 19.9717 9.14099L20.0215 0H24.5671L24.5173 25.2261H20.8106L20.4616 23.2329ZM11.7194 16.485C11.7194 19.5967 13.3625 21.6245 15.8456 21.6245C18.5378 21.6245 19.9717 19.5967 19.9717 16.485C19.9717 13.3733 18.5378 11.3444 15.8456 11.3444C13.3636 11.3444 11.7194 13.3733 11.7194 16.485Z" fill="black"></path></svg>