<svg width="74" height="58" viewBox="0 0 74 58" fill="none" xmlns="http://www.w3.org/2000/svg">
<g clip-path="url(#clip0_34_503)">
<path d="M20.8599 22.9971C20.7766 25.563 22.0855 26.6992 22.1179 27.4208C22.1025 27.5676 22.0514 27.7088 21.9689 27.8323C21.8865 27.9559 21.775 28.0583 21.6438 28.131L20.1638 29.146C19.9723 29.2776 19.7465 29.353 19.5129 29.3635C19.4631 29.3613 18.5659 29.5708 17.1449 26.4624C16.2779 27.5227 15.1748 28.3745 13.92 28.9528C12.6652 29.531 11.2921 29.8203 9.90558 29.7985C8.02321 29.8994 2.92183 28.7518 3.1843 23.431C3.00046 19.0946 7.12249 16.4008 11.3856 16.6285C12.2065 16.6307 13.8831 16.6704 16.8188 17.3387V15.5693C17.1298 12.5719 15.1191 10.2462 11.6376 10.5951C11.3601 10.5962 9.39452 10.5385 6.3374 11.7404C5.4864 12.1233 5.37771 12.0598 5.09443 12.0598C4.23765 12.0598 4.5903 9.62655 4.75449 9.31842C5.3569 8.59342 8.9008 7.23971 12.3788 7.25897C14.7043 7.05747 17.0173 7.76064 18.818 9.21647C19.5499 10.0186 20.1083 10.9577 20.4595 11.9772C20.8106 12.9966 20.9472 14.0753 20.8611 15.1479L20.8599 22.9971ZM10.8676 26.6663C14.6173 26.6131 16.2048 24.4041 16.5667 23.2146C16.8512 22.0762 16.8038 21.3557 16.8038 20.1107C15.6857 19.8479 14.0762 19.5613 12.2296 19.559C10.4779 19.4299 7.27858 20.1968 7.40346 23.2135C7.26008 25.1155 8.68921 26.7705 10.8676 26.6663ZM30.6302 29.2774C29.7214 29.359 29.2982 28.7269 29.1641 28.1027L23.406 9.45096C23.2938 9.13604 23.2198 8.81092 23.184 8.47901C23.1627 8.34217 23.1978 8.20266 23.2815 8.09115C23.3652 7.97963 23.4906 7.90523 23.6303 7.88428C23.658 7.87975 23.384 7.88428 26.2029 7.88428C27.2181 7.7846 27.5488 8.56737 27.654 9.05901L31.7841 25.0124L35.6183 9.05901C35.6796 8.69424 35.9582 7.80499 37.0983 7.89901H39.0824C39.3333 7.87862 40.367 7.84237 40.5485 9.07374L44.4127 25.231L48.6758 9.07374C48.7313 8.82678 48.9903 7.78573 50.1419 7.89901H52.4221C52.5203 7.88428 53.1331 7.80725 53.0291 8.87096C52.9794 9.08053 53.4234 7.66338 46.9299 28.1174C46.7969 28.7416 46.3726 29.3737 45.4637 29.2922H43.3027C42.0378 29.4224 41.8562 28.1979 41.8366 28.0744L38.0025 12.5401L34.2123 28.0585C34.1938 28.182 34.0122 29.4066 32.7461 29.2763H30.6302V29.2774ZM62.2513 29.9152C61.5715 29.9164 58.3293 29.8812 55.6191 28.523C55.3491 28.411 55.1192 28.223 54.9584 27.9828C54.7976 27.7426 54.7133 27.461 54.7161 27.1738V25.956C54.7161 24.9988 55.4329 25.1744 55.737 25.2888C56.8979 25.7487 57.6425 26.0976 59.0682 26.3763C63.3058 27.2293 65.1697 26.1158 65.6264 25.8688C67.1469 24.9841 67.2672 22.9598 66.2335 21.9096C65.0217 20.9139 64.4436 20.8765 60.0903 19.5307C59.5538 19.3846 55.0375 17.989 55.0271 13.5993C54.9566 10.4003 57.9235 7.23518 63.0653 7.26124C64.5303 7.2601 68.4338 7.72909 69.4906 9.03069C69.6467 9.26745 69.7242 9.54612 69.7126 9.82819V10.9735C69.7126 11.4764 69.5253 11.7279 69.1495 11.7279C68.258 11.6305 66.6763 10.4626 63.4654 10.5101C62.6687 10.4694 58.8531 10.6132 59.0242 13.3388C58.9745 15.4866 62.101 16.292 62.4583 16.3849C66.674 17.6276 68.0835 17.8338 69.7566 19.7358C71.7384 22.2563 70.67 25.2073 70.2595 26.0161C68.0534 30.263 62.3485 29.9175 62.2513 29.9152ZM66.8995 41.7939C58.8022 47.6528 47.0478 50.7714 37.0116 50.7714C23.4696 50.8589 10.384 45.9804 0.327208 37.095C-0.427823 36.4278 0.238177 35.5136 1.15624 36.0222C12.3123 42.2744 24.9432 45.5595 37.7955 45.5514C47.3932 45.501 56.8862 43.5935 65.7293 39.9383C67.0914 39.3719 68.2465 40.8219 66.8995 41.7939ZM70.2746 38.0228C69.2386 36.7178 63.4203 37.4133 60.8153 37.718C60.0302 37.8053 59.8972 37.138 60.6083 36.6453C65.2414 33.4541 72.8507 34.3683 73.7248 35.4411C74.5978 36.5139 73.4878 43.9836 69.1507 47.552C68.4847 48.1037 67.8476 47.8125 68.1436 47.0875C69.1195 44.6803 71.3106 39.3289 70.2746 38.0228Z" fill="#fff"/>
</g>
<defs>
<clipPath id="clip0_34_503">
<rect width="74" height="58" fill="white"/>
</clipPath>
</defs>
</svg>
