<svg width="53" height="60" viewBox="0 0 53 60" fill="none" xmlns="http://www.w3.org/2000/svg">
<g clip-path="url(#clip0_34_497)">
<path d="M52.0003 27.6622L28.866 4.74033C28.2256 4.10651 27.3574 3.75049 26.4521 3.75049C25.5468 3.75049 24.6785 4.10651 24.0381 4.74033L19.2278 9.50166L25.3228 15.5392C28.5241 14.4681 31.5551 17.5044 30.456 20.6579L36.331 26.4774C40.3805 25.0946 43.5688 30.1103 40.5272 33.1208C37.3934 36.2251 32.2211 32.7845 33.9022 28.745L28.4189 23.3204V37.5997C31.4119 39.0692 31.0523 42.504 29.493 44.045C28.7312 44.7992 27.6983 45.2229 26.6212 45.2229C25.5442 45.2229 24.5112 44.7992 23.7494 44.045C21.6708 41.9825 22.4398 38.5478 25.0803 37.4825V23.0685C22.6196 22.0712 22.1701 19.4661 22.8751 17.795L16.8665 11.836L0.999637 27.5556C0.359495 28.1898 -0.00012207 29.0499 -0.00012207 29.9468C-0.00012207 30.8436 0.359495 31.7038 0.999637 32.338L24.141 55.2599C24.7812 55.8936 25.6493 56.2496 26.5544 56.2496C27.4595 56.2496 28.3276 55.8936 28.9678 55.2599L52.0003 32.4446C52.6404 31.8104 53.0001 30.9503 53.0001 30.0534C53.0001 29.1566 52.6404 28.2964 52.0003 27.6622Z" fill="#fff"/>
</g>
<defs>
<clipPath id="clip0_34_497">
<rect width="53" height="60" fill="white"/>
</clipPath>
</defs>
</svg>
