<svg width="57" height="59" viewBox="0 0 57 59" fill="none" xmlns="http://www.w3.org/2000/svg">
<path d="M19.0651 45.7941C19.0651 46.0246 18.8008 46.209 18.4675 46.209C18.0883 46.2436 17.824 46.0592 17.824 45.7941C17.824 45.5637 18.0883 45.3793 18.4216 45.3793C18.7663 45.3447 19.0651 45.5291 19.0651 45.7941ZM15.4911 45.2756C15.4107 45.5061 15.6405 45.7711 15.9853 45.8402C16.2841 45.9555 16.6288 45.8402 16.6978 45.6098C16.7667 45.3793 16.5484 45.1143 16.2036 45.0105C15.9048 44.9299 15.5716 45.0451 15.4911 45.2756ZM20.5706 45.0797C20.2373 45.1604 20.0075 45.3793 20.0419 45.6443C20.0764 45.8748 20.3752 46.0246 20.72 45.9439C21.0532 45.8633 21.2831 45.6443 21.2486 45.4139C21.2141 45.1949 20.9038 45.0451 20.5706 45.0797ZM28.1323 0.921875C12.1929 0.921875 0 13.0561 0 29.0391C0 41.8186 8.02137 52.7543 19.4788 56.6031C20.9498 56.8682 21.4669 55.9578 21.4669 55.2088C21.4669 54.4943 21.4325 50.5533 21.4325 48.1334C21.4325 48.1334 13.3881 49.8619 11.6988 44.6994C11.6988 44.6994 10.3887 41.3461 8.50403 40.4818C8.50403 40.4818 5.87238 38.6727 8.6879 38.7072C8.6879 38.7072 11.5494 38.9377 13.1238 41.6803C15.6405 46.1283 19.8581 44.8492 21.5014 44.0887C21.7657 42.2449 22.5127 40.9658 23.3401 40.2053C16.9161 39.4908 10.4347 38.5574 10.4347 27.4719C10.4347 24.3029 11.3081 22.7127 13.1468 20.6846C12.848 19.9355 11.8712 16.8473 13.4456 12.8602C15.8474 12.1111 21.375 15.9715 21.375 15.9715C23.6734 15.3262 26.1442 14.992 28.5919 14.992C31.0397 14.992 33.5105 15.3262 35.8089 15.9715C35.8089 15.9715 41.3365 12.0996 43.7383 12.8602C45.3127 16.8588 44.3359 19.9355 44.0371 20.6846C45.8758 22.7242 47.002 24.3145 47.002 27.4719C47.002 38.592 40.2333 39.4793 33.8093 40.2053C34.8665 41.1156 35.7629 42.8441 35.7629 45.5521C35.7629 49.4355 35.7284 54.2408 35.7284 55.1857C35.7284 55.9348 36.2571 56.8451 37.7165 56.5801C49.2085 52.7543 57 41.8186 57 29.0391C57 13.0561 44.0716 0.921875 28.1323 0.921875ZM11.1702 40.6662C11.0208 40.7814 11.0552 41.0465 11.2506 41.2654C11.4345 41.4498 11.6988 41.5305 11.8482 41.3807C11.9976 41.2654 11.9631 41.0004 11.7677 40.7814C11.5839 40.5971 11.3196 40.5164 11.1702 40.6662ZM9.92903 39.7328C9.84859 39.8826 9.96351 40.067 10.1933 40.1822C10.3772 40.2975 10.6071 40.2629 10.6875 40.1016C10.7679 39.9518 10.653 39.7674 10.4232 39.6521C10.1933 39.583 10.0095 39.6176 9.92903 39.7328ZM13.6524 43.8352C13.4685 43.985 13.5375 44.3307 13.8018 44.5496C14.0661 44.8146 14.3994 44.8492 14.5488 44.6648C14.6982 44.515 14.6292 44.1693 14.3994 43.9504C14.1466 43.6854 13.8018 43.6508 13.6524 43.8352ZM12.3423 42.1412C12.1585 42.2564 12.1585 42.5561 12.3423 42.8211C12.5262 43.0861 12.8365 43.2014 12.9859 43.0861C13.1698 42.9363 13.1698 42.6367 12.9859 42.3717C12.825 42.1066 12.5262 41.9914 12.3423 42.1412Z" fill="#fff"/>
</svg>
