<svg width="59" height="68" viewBox="0 0 59 68" fill="none" xmlns="http://www.w3.org/2000/svg">
<path d="M0 4.25V63.75H59V4.25H0ZM32.1076 50.6547C32.1076 56.4453 28.7362 59.0883 23.8239 59.0883C19.3857 59.0883 16.8176 56.7773 15.5007 53.975L20.0179 51.2258C20.8871 52.7797 21.6772 54.0945 23.5868 54.0945C25.4042 54.0945 26.5632 53.3773 26.5632 50.575V31.5695H32.1076V50.6547ZM45.2246 59.0883C40.0752 59.0883 36.7433 56.618 35.1234 53.3773L39.6406 50.7477C40.8259 52.7 42.3799 54.1477 45.106 54.1477C47.3975 54.1477 48.8725 52.9922 48.8725 51.3852C48.8725 49.4727 47.3712 48.7953 44.8295 47.6664L43.4467 47.0687C39.4431 45.3555 36.796 43.1906 36.796 38.6352C36.796 34.4383 39.9699 31.2508 44.9085 31.2508C48.4379 31.2508 50.9665 32.4859 52.7839 35.7266L48.4643 38.5156C47.5161 36.8023 46.4888 36.125 44.8953 36.125C43.2754 36.125 42.2482 37.1609 42.2482 38.5156C42.2482 40.1891 43.2754 40.8664 45.6592 41.9156L47.042 42.5133C51.7567 44.5453 54.4038 46.6305 54.4038 51.3055C54.4038 56.3258 50.4792 59.0883 45.2246 59.0883Z" fill="#004F70"/>
</svg>
