<svg width="50" height="56" viewBox="0 0 50 56" fill="none" xmlns="http://www.w3.org/2000/svg">
<g clip-path="url(#clip0_34_499)">
<path d="M25 55.5624C24.2522 55.5624 23.4933 55.3655 22.8348 54.9937L15.9487 51.0015C14.9219 50.4327 15.4241 50.2358 15.7589 50.1265C17.1317 49.6562 17.4107 49.5577 18.8728 48.7374C19.029 48.6499 19.2299 48.6827 19.3862 48.7812L24.6763 51.8546C24.8661 51.964 25.1339 51.964 25.3125 51.8546L45.9263 40.1952C46.1161 40.0858 46.2388 39.8671 46.2388 39.6483V16.3296C46.2388 16.0999 46.1161 15.8921 45.9152 15.7718L25.3125 4.12334C25.1228 4.01397 24.8661 4.01397 24.6763 4.12334L4.08482 15.7827C3.88393 15.8921 3.76116 16.1108 3.76116 16.3405V39.6483C3.76116 39.8671 3.88393 40.0858 4.08482 40.1843L9.73214 43.378C12.8013 44.8765 14.6763 43.1155 14.6763 41.3327V18.3202C14.6763 17.9921 14.9442 17.7405 15.279 17.7405H17.8906C18.2143 17.7405 18.4933 17.9921 18.4933 18.3202V41.3437C18.4933 45.3468 16.2612 47.6437 12.3884 47.6437C11.1942 47.6437 10.2567 47.6437 7.64509 46.3749L2.2433 43.3233C0.904018 42.5687 0.078125 41.1577 0.078125 39.6374V16.3296C0.078125 14.8202 0.904018 13.3983 2.2433 12.6437L22.8348 0.984277C24.1406 0.262402 25.8705 0.262402 27.1652 0.984277L47.779 12.6546C49.1183 13.4093 49.9442 14.8202 49.9442 16.3405V39.6483C49.9442 41.1577 49.1183 42.5687 47.779 43.3343L27.1652 54.9937C26.5067 55.3655 25.7589 55.5624 25 55.5624ZM41.6406 32.5827C41.6406 28.2187 38.6272 27.0593 32.2991 26.239C25.8929 25.4077 25.2455 24.9812 25.2455 23.5155C25.2455 22.3015 25.7924 20.6827 30.5357 20.6827C34.7656 20.6827 36.3281 21.5796 36.9754 24.3796C37.0312 24.6421 37.2768 24.839 37.5558 24.839H40.2344C40.4018 24.839 40.558 24.7733 40.6696 24.653C40.7812 24.5327 40.837 24.3687 40.8259 24.2046C40.4129 19.3812 37.1429 17.139 30.5357 17.139C24.654 17.139 21.1496 19.5671 21.1496 23.6468C21.1496 28.0655 24.6429 29.2905 30.279 29.8374C37.0312 30.4827 37.5558 31.4562 37.5558 32.7577C37.5558 35.0108 35.7031 35.9733 31.3616 35.9733C25.904 35.9733 24.7098 34.628 24.308 31.9702C24.2634 31.6858 24.0179 31.478 23.7165 31.478H21.0491C20.7143 31.478 20.4576 31.7405 20.4576 32.0577C20.4576 35.4593 22.3437 39.5171 31.3728 39.5171C37.8906 39.5062 41.6406 36.9796 41.6406 32.5827Z" fill="#fff"/>
</g>
<defs>
<clipPath id="clip0_34_499">
<rect width="50" height="56" fill="white"/>
</clipPath>
</defs>
</svg>
