<svg width="49" height="56" viewBox="0 0 49 56" fill="none" xmlns="http://www.w3.org/2000/svg">
<g clip-path="url(#clip0_34_501)">
<path d="M48.1032 21.9296C47.261 18.5499 45.6641 16.0015 42.2626 16.0015H37.8766V21.1858C37.8766 25.2108 34.4641 28.6015 30.5704 28.6015H18.8891C15.6954 28.6015 13.0485 31.3358 13.0485 34.5405V45.6749C13.0485 48.8468 15.8048 50.7062 18.8891 51.614C22.586 52.6968 26.1407 52.8937 30.5704 51.614C33.5126 50.7608 36.411 49.0437 36.411 45.6749V41.2233H24.7407V39.7358H42.2626C45.6641 39.7358 46.922 37.3624 48.1032 33.8077C49.3282 30.1436 49.2735 26.6218 48.1032 21.9296ZM31.3032 44.1874C32.5173 44.1874 33.5016 45.1827 33.5016 46.4077C33.5016 47.6436 32.5173 48.639 31.3032 48.639C30.1001 48.639 29.1048 47.6327 29.1048 46.4077C29.1157 45.1718 30.1001 44.1874 31.3032 44.1874ZM18.3532 27.1358H30.0345C33.2829 27.1358 35.8751 24.4562 35.8751 21.1968V10.0515C35.8751 6.87959 33.2063 4.50615 30.0345 3.97021C26.1188 3.3249 21.8641 3.35771 18.3532 3.98115C13.4095 4.85615 12.5126 6.68271 12.5126 10.0624V14.514H24.2048V16.0015H8.12664C4.72508 16.0015 1.75008 18.0468 0.820395 21.9296C-0.25148 26.3811 -0.29523 29.1593 0.820395 33.8077C1.65164 37.264 3.63133 39.7358 7.03289 39.7358H11.047V34.3983C11.047 30.5374 14.3829 27.1358 18.3532 27.1358ZM17.6204 11.539C16.4063 11.539 15.422 10.5436 15.422 9.31865C15.4329 8.08271 16.4063 7.0874 17.6204 7.0874C18.8235 7.0874 19.8188 8.09365 19.8188 9.31865C19.8188 10.5436 18.8345 11.539 17.6204 11.539Z" fill="#fff"/>
</g>
<defs>
<clipPath id="clip0_34_501">
<rect width="49" height="56" fill="white"/>
</clipPath>
</defs>
</svg>
