<svg width="64" height="64" viewBox="0 0 64 64" fill="none" xmlns="http://www.w3.org/2000/svg">
<path d="M52.275 22.1499C51.6 21.9249 50.925 21.7124 50.25 21.5124C50.3625 21.0499 50.4625 20.5874 50.5625 20.1249C52.1 12.6749 51.0875 6.6874 47.675 4.7124C44.3875 2.8249 39.025 4.7874 33.6 9.5124C33.0625 9.9749 32.5375 10.4624 32.0375 10.9499C31.7 10.6249 31.35 10.2999 31 9.9874C25.3125 4.9374 19.6125 2.8124 16.2 4.7999C12.925 6.6999 11.95 12.3374 13.325 19.3874C13.4625 20.0874 13.6125 20.7749 13.7875 21.4749C12.9875 21.6999 12.2 21.9499 11.4625 22.2124C4.7875 24.5249 0 28.1749 0 31.9499C0 35.8499 5.1 39.7624 12.0375 42.1374C12.6 42.3249 13.1625 42.5124 13.7375 42.6749C13.55 43.4249 13.3875 44.1624 13.2375 44.9249C11.925 51.8624 12.95 57.3624 16.225 59.2499C19.6 61.1999 25.275 59.1999 30.8 54.3624C31.2375 53.9749 31.675 53.5749 32.1125 53.1499C32.6625 53.6874 33.2375 54.1999 33.8125 54.6999C39.1625 59.2999 44.45 61.1624 47.7125 59.2749C51.0875 57.3249 52.1875 51.4124 50.7625 44.2124C50.65 43.6624 50.525 43.0999 50.3875 42.5249C50.7875 42.4124 51.175 42.2874 51.5625 42.1624C58.775 39.7749 64 35.9124 64 31.9499C64 28.1624 59.075 24.4874 52.275 22.1499ZM35.3625 11.5374C40.0125 7.4874 44.35 5.8999 46.325 7.0374C48.4375 8.2499 49.25 13.1499 47.925 19.5874C47.8375 20.0124 47.75 20.4249 47.6375 20.8374C44.8625 20.2124 42.05 19.7624 39.225 19.5124C37.6 17.1874 35.825 14.9624 33.9 12.8749C34.3875 12.4124 34.8625 11.9749 35.3625 11.5374ZM20.9 38.4374C21.5375 39.5249 22.1875 40.6124 22.875 41.6749C20.925 41.4624 18.9875 41.1499 17.075 40.7374C17.625 38.9374 18.3125 37.0749 19.1125 35.1749C19.6875 36.2749 20.275 37.3624 20.9 38.4374ZM17.1125 23.3999C18.9125 22.9999 20.825 22.6749 22.8125 22.4249C22.15 23.4624 21.5 24.5249 20.8875 25.5999C20.275 26.6624 19.675 27.7499 19.1125 28.8499C18.325 26.9874 17.6625 25.1624 17.1125 23.3999ZM20.5375 32.0124C21.3625 30.2874 22.2625 28.5999 23.2125 26.9374C24.1625 25.2749 25.1875 23.6624 26.2625 22.0749C28.1375 21.9374 30.05 21.8624 32 21.8624C33.95 21.8624 35.875 21.9374 37.7375 22.0749C38.8 23.6499 39.8125 25.2624 40.775 26.9124C41.7375 28.5624 42.6375 30.2499 43.4875 31.9624C42.65 33.6874 41.75 35.3874 40.7875 37.0624C39.8375 38.7249 38.825 40.3374 37.7625 41.9374C35.9 42.0749 33.9625 42.1374 32 42.1374C30.0375 42.1374 28.1375 42.0749 26.3 41.9624C25.2125 40.3749 24.1875 38.7499 23.225 37.0874C22.2625 35.4249 21.375 33.7374 20.5375 32.0124ZM43.1125 38.4124C43.75 37.3124 44.35 36.1999 44.9375 35.0749C45.7375 36.8874 46.4375 38.7249 47.05 40.6124C45.1125 41.0499 43.15 41.3874 41.175 41.6124C41.85 40.5624 42.4875 39.4874 43.1125 38.4124ZM44.9125 28.8499C44.325 27.7499 43.725 26.6499 43.1 25.5749C42.4875 24.5124 41.85 23.4624 41.1875 22.4249C43.2 22.6749 45.125 23.0124 46.925 23.4249C46.35 25.2749 45.675 27.0749 44.9125 28.8499ZM32.025 14.7874C33.3375 16.2124 34.575 17.7124 35.725 19.2624C33.25 19.1499 30.7625 19.1499 28.2875 19.2624C29.5125 17.6499 30.775 16.1499 32.025 14.7874ZM17.525 7.1249C19.625 5.8999 24.2875 7.6499 29.2 11.9999C29.5125 12.2749 29.825 12.5749 30.15 12.8749C28.2125 14.9624 26.425 17.1874 24.7875 19.5124C21.9625 19.7624 19.1625 20.1999 16.3875 20.8124C16.225 20.1749 16.0875 19.5249 15.95 18.8749C14.775 12.8249 15.55 8.2624 17.525 7.1249ZM14.4625 40.0749C13.9375 39.9249 13.425 39.7624 12.9125 39.5874C10.25 38.7499 7.225 37.4249 5.0375 35.6874C3.775 34.8124 2.925 33.4624 2.6875 31.9499C2.6875 29.6624 6.6375 26.7374 12.3375 24.7499C13.05 24.4999 13.775 24.2749 14.5 24.0624C15.35 26.7749 16.375 29.4374 17.5625 32.0124C16.3625 34.6249 15.325 37.3249 14.4625 40.0749ZM29.0375 52.3249C26.975 54.2124 24.5875 55.7124 21.9875 56.7374C20.6 57.3999 19 57.4624 17.575 56.8999C15.5875 55.7499 14.7625 51.3374 15.8875 45.3999C16.025 44.6999 16.175 43.9999 16.35 43.3124C19.15 43.9124 21.975 44.3249 24.8375 44.5374C26.4875 46.8749 28.3 49.1124 30.2375 51.2124C29.8375 51.5999 29.4375 51.9749 29.0375 52.3249ZM32.1 49.2874C30.825 47.9124 29.55 46.3874 28.3125 44.7499C29.5125 44.7999 30.75 44.8249 32 44.8249C33.2875 44.8249 34.55 44.7999 35.8 44.7374C34.65 46.3249 33.4125 47.8374 32.1 49.2874ZM48.4375 53.0374C48.325 54.5624 47.575 55.9874 46.375 56.9499C44.3875 58.0999 40.15 56.5999 35.575 52.6749C35.05 52.2249 34.525 51.7374 33.9875 51.2374C35.9 49.1249 37.6625 46.8874 39.2625 44.5374C42.125 44.2999 44.975 43.8624 47.7875 43.2249C47.9125 43.7374 48.025 44.2499 48.125 44.7499C48.7375 47.4499 48.8375 50.2624 48.4375 53.0374ZM50.7125 39.5999C50.3625 39.7124 50.0125 39.8249 49.65 39.9249C48.775 37.1999 47.7 34.5374 46.4625 31.9499C47.6625 29.3999 48.675 26.7749 49.525 24.0874C50.175 24.2749 50.8 24.4749 51.4 24.6749C57.225 26.6749 61.3125 29.6499 61.3125 31.9249C61.3125 34.3749 56.95 37.5374 50.7125 39.5999ZM32 37.7249C35.1625 37.7249 37.725 35.1624 37.725 31.9999C37.725 28.8374 35.1625 26.2749 32 26.2749C28.8375 26.2749 26.275 28.8374 26.275 31.9999C26.275 35.1624 28.8375 37.7249 32 37.7249Z" fill="#004F70"/>
</svg>
