<svg width="46" height="53" viewBox="0 0 46 53" fill="none" xmlns="http://www.w3.org/2000/svg">
<g clip-path="url(#clip0_34_505)">
<path d="M46 8.28125V13.25C46 17.8254 35.7013 21.5312 23 21.5312C10.2987 21.5312 0 17.8254 0 13.25V8.28125C0 3.70586 10.2987 0 23 0C35.7013 0 46 3.70586 46 8.28125ZM40.3732 22.2248C42.5089 21.4588 44.4701 20.4754 46 19.2643V29.8125C46 34.3879 35.7013 38.0938 23 38.0938C10.2987 38.0938 0 34.3879 0 29.8125V19.2643C1.52991 20.4857 3.49107 21.4588 5.62679 22.2248C10.2371 23.8811 16.3772 24.8438 23 24.8438C29.6228 24.8438 35.7629 23.8811 40.3732 22.2248ZM0 35.8268C1.52991 37.0482 3.49107 38.0213 5.62679 38.7873C10.2371 40.4436 16.3772 41.4062 23 41.4062C29.6228 41.4062 35.7629 40.4436 40.3732 38.7873C42.5089 38.0213 44.4701 37.0379 46 35.8268V44.7188C46 49.2941 35.7013 53 23 53C10.2987 53 0 49.2941 0 44.7188V35.8268Z" fill="#fff"/>
</g>
<defs>
<clipPath id="clip0_34_505">
<rect width="46" height="53" fill="white"/>
</clipPath>
</defs>
</svg>
