<svg width="60" height="60" viewBox="0 0 60 60" fill="none" xmlns="http://www.w3.org/2000/svg">
<path d="M0 30V60H60V0H0V30ZM48.3504 27.6C49.7875 27.9335 51.0936 28.6851 52.104 29.76C52.6603 30.3391 53.1438 30.9839 53.544 31.68C53.544 31.7568 50.952 33.5088 49.3728 34.488C49.3152 34.5264 49.0848 34.2768 48.8304 33.8976C48.5421 33.4002 48.1325 32.9839 47.6398 32.6876C47.1471 32.3913 46.5873 32.2246 46.0128 32.2032C44.1936 32.0784 43.0224 33.0336 43.032 34.6032C43.017 34.994 43.1064 35.3817 43.2912 35.7264C43.6896 36.5568 44.4336 37.0512 46.7664 38.0592C51.0624 39.9072 52.9008 41.1264 54.0432 42.8592C55.32 44.7792 55.6032 47.88 54.7392 50.1744C53.7792 52.6704 51.4272 54.3648 48.1008 54.9264C46.5815 55.1004 45.0465 55.0843 43.5312 54.8784C41.2088 54.4956 39.0695 53.3805 37.4256 51.696C36.8736 51.0864 35.7984 49.4976 35.8656 49.3824C36.0408 49.2523 36.2253 49.1352 36.4176 49.032L38.64 47.8032L40.3632 46.8048L40.7232 47.3376C41.3308 48.2067 42.1039 48.9473 42.9984 49.5168C44.9184 50.5248 47.5392 50.3856 48.8352 49.2192C49.2703 48.7918 49.5418 48.2253 49.6023 47.6184C49.6628 47.0114 49.5086 46.4025 49.1664 45.8976C48.6864 45.2304 47.7264 44.6688 45.0432 43.4976C41.9472 42.1632 40.6128 41.3376 39.3936 40.0224C38.6325 39.1545 38.0705 38.1305 37.7472 37.0224C37.506 35.7564 37.4704 34.4598 37.6416 33.1824C38.28 30.192 40.5216 28.104 43.7952 27.4848C45.3112 27.2972 46.8469 27.3393 48.3504 27.6096V27.6ZM34.2672 30.1152V32.5728H26.4768V54.7632H20.952V32.568H13.1424V30.168C13.1181 29.3404 13.1373 28.512 13.2 27.6864C13.2384 27.6432 18 27.6432 23.76 27.6432H34.2384L34.2672 30.1152Z" fill="#004F70"/>
</svg>
